<mxfile host="65bd71144e">
    <diagram id="N5QffPlRdRMYqsL4Nx3K" name="Page-1">
        <mxGraphModel dx="2190" dy="1438" grid="0" gridSize="10" guides="1" tooltips="1" connect="1" arrows="1" fold="1" page="1" pageScale="1" pageWidth="10000000" pageHeight="10000000" math="0" shadow="0">
            <root>
                <mxCell id="0"/>
                <mxCell id="1" parent="0"/>
                <mxCell id="2" value="Bean的生命周期" style="shape=note;size=20;whiteSpace=wrap;html=1;fontStyle=1;fontSize=16;" parent="1" vertex="1">
                    <mxGeometry x="310" y="200" width="100" height="100" as="geometry"/>
                </mxCell>
                <mxCell id="6" value="" style="edgeStyle=orthogonalEdgeStyle;html=1;fontSize=16;" parent="1" source="3" target="5" edge="1">
                    <mxGeometry relative="1" as="geometry"/>
                </mxCell>
                <mxCell id="8" value="" style="edgeStyle=orthogonalEdgeStyle;html=1;fontSize=16;" parent="1" source="3" target="7" edge="1">
                    <mxGeometry relative="1" as="geometry"/>
                </mxCell>
                <mxCell id="10" value="" style="edgeStyle=orthogonalEdgeStyle;html=1;fontSize=16;" parent="1" source="3" target="9" edge="1">
                    <mxGeometry relative="1" as="geometry">
                        <Array as="points">
                            <mxPoint x="560" y="545"/>
                            <mxPoint x="560" y="635"/>
                        </Array>
                    </mxGeometry>
                </mxCell>
                <mxCell id="35" value="" style="edgeStyle=orthogonalEdgeStyle;html=1;fontSize=16;" parent="1" source="3" target="34" edge="1">
                    <mxGeometry relative="1" as="geometry"/>
                </mxCell>
                <mxCell id="3" value="创建容器对象&lt;br style=&quot;font-size: 16px;&quot;&gt;obtainFreshBeanFactory" style="whiteSpace=wrap;html=1;fontStyle=1;fontSize=16;" parent="1" vertex="1">
                    <mxGeometry x="190" y="500" width="340" height="90" as="geometry"/>
                </mxCell>
                <mxCell id="5" value="创建容器&lt;br&gt;DefaultListableBeanFactory" style="whiteSpace=wrap;html=1;fontSize=16;fontStyle=1;" parent="1" vertex="1">
                    <mxGeometry x="590" y="420" width="380" height="80" as="geometry"/>
                </mxCell>
                <mxCell id="7" value="设置某些属性值" style="whiteSpace=wrap;html=1;fontSize=16;fontStyle=1;" parent="1" vertex="1">
                    <mxGeometry x="590" y="511.25" width="300" height="75" as="geometry"/>
                </mxCell>
                <mxCell id="12" value="" style="edgeStyle=orthogonalEdgeStyle;html=1;fontSize=16;" parent="1" source="9" target="11" edge="1">
                    <mxGeometry relative="1" as="geometry"/>
                </mxCell>
                <mxCell id="9" value="加载配置文件&lt;br&gt;loadBeanDefinitions" style="whiteSpace=wrap;html=1;fontSize=16;fontStyle=1;" parent="1" vertex="1">
                    <mxGeometry x="590" y="600" width="320" height="70" as="geometry"/>
                </mxCell>
                <mxCell id="14" value="" style="edgeStyle=orthogonalEdgeStyle;html=1;fontSize=16;" parent="1" source="11" target="13" edge="1">
                    <mxGeometry relative="1" as="geometry"/>
                </mxCell>
                <mxCell id="11" value="documen" style="whiteSpace=wrap;html=1;fontSize=16;fontStyle=1;" parent="1" vertex="1">
                    <mxGeometry x="1120" y="590" width="120" height="60" as="geometry"/>
                </mxCell>
                <mxCell id="16" value="" style="edgeStyle=orthogonalEdgeStyle;html=1;fontSize=16;" parent="1" source="13" target="15" edge="1">
                    <mxGeometry relative="1" as="geometry"/>
                </mxCell>
                <mxCell id="18" value="" style="edgeStyle=orthogonalEdgeStyle;html=1;fontSize=16;" parent="1" source="13" target="17" edge="1">
                    <mxGeometry relative="1" as="geometry">
                        <Array as="points">
                            <mxPoint x="1470" y="620"/>
                            <mxPoint x="1470" y="700"/>
                        </Array>
                    </mxGeometry>
                </mxCell>
                <mxCell id="13" value="element" style="whiteSpace=wrap;html=1;fontSize=16;fontStyle=1;" parent="1" vertex="1">
                    <mxGeometry x="1320" y="590" width="120" height="60" as="geometry"/>
                </mxCell>
                <mxCell id="22" value="" style="edgeStyle=orthogonalEdgeStyle;html=1;fontSize=16;" parent="1" source="15" target="21" edge="1">
                    <mxGeometry relative="1" as="geometry"/>
                </mxCell>
                <mxCell id="15" value="parseDefaultElement" style="whiteSpace=wrap;html=1;fontSize=16;fontStyle=1;" parent="1" vertex="1">
                    <mxGeometry x="1500" y="507.5" width="220" height="82.5" as="geometry"/>
                </mxCell>
                <mxCell id="20" value="" style="edgeStyle=orthogonalEdgeStyle;html=1;fontSize=16;" parent="1" source="17" target="19" edge="1">
                    <mxGeometry relative="1" as="geometry"/>
                </mxCell>
                <mxCell id="17" value="parseCustomElement" style="whiteSpace=wrap;html=1;fontSize=16;fontStyle=1;" parent="1" vertex="1">
                    <mxGeometry x="1500" y="660" width="210" height="70" as="geometry"/>
                </mxCell>
                <mxCell id="25" style="edgeStyle=orthogonalEdgeStyle;html=1;entryX=0;entryY=0.5;entryDx=0;entryDy=0;fontSize=16;" parent="1" source="19" target="23" edge="1">
                    <mxGeometry relative="1" as="geometry"/>
                </mxCell>
                <mxCell id="19" value="context&lt;br&gt;aop&lt;br&gt;自定义标签" style="whiteSpace=wrap;html=1;fontSize=16;fontStyle=1;" parent="1" vertex="1">
                    <mxGeometry x="1750" y="642.51" width="280" height="105" as="geometry"/>
                </mxCell>
                <mxCell id="24" value="" style="edgeStyle=orthogonalEdgeStyle;html=1;fontSize=16;" parent="1" source="21" target="23" edge="1">
                    <mxGeometry relative="1" as="geometry">
                        <Array as="points">
                            <mxPoint x="2090" y="549"/>
                            <mxPoint x="2090" y="640"/>
                        </Array>
                    </mxGeometry>
                </mxCell>
                <mxCell id="21" value="bean" style="whiteSpace=wrap;html=1;fontSize=16;fontStyle=1;" parent="1" vertex="1">
                    <mxGeometry x="1790" y="518.75" width="120" height="60" as="geometry"/>
                </mxCell>
                <mxCell id="27" value="" style="edgeStyle=orthogonalEdgeStyle;html=1;fontSize=16;" parent="1" source="23" target="26" edge="1">
                    <mxGeometry relative="1" as="geometry"/>
                </mxCell>
                <mxCell id="60" value="" style="edgeStyle=orthogonalEdgeStyle;html=1;fontSize=16;" parent="1" source="23" target="59" edge="1">
                    <mxGeometry relative="1" as="geometry">
                        <Array as="points">
                            <mxPoint x="2225" y="880"/>
                            <mxPoint x="2225" y="880"/>
                        </Array>
                    </mxGeometry>
                </mxCell>
                <mxCell id="23" value="GenericBeanDefinition" style="whiteSpace=wrap;html=1;fontSize=16;fontStyle=1;" parent="1" vertex="1">
                    <mxGeometry x="2120" y="605" width="210" height="60" as="geometry"/>
                </mxCell>
                <mxCell id="64" value="" style="edgeStyle=orthogonalEdgeStyle;html=1;fontSize=16;" parent="1" source="26" target="63" edge="1">
                    <mxGeometry relative="1" as="geometry">
                        <Array as="points">
                            <mxPoint x="2860" y="640"/>
                            <mxPoint x="2860" y="948"/>
                            <mxPoint x="2765" y="948"/>
                        </Array>
                    </mxGeometry>
                </mxCell>
                <mxCell id="26" value="RootBeanDefinition" style="whiteSpace=wrap;html=1;fontSize=16;fontStyle=1;" parent="1" vertex="1">
                    <mxGeometry x="2450" y="610" width="375" height="60" as="geometry"/>
                </mxCell>
                <mxCell id="28" value="合并" style="text;html=1;align=center;verticalAlign=middle;resizable=0;points=[];autosize=1;strokeColor=none;fillColor=none;fontSize=16;" parent="1" vertex="1">
                    <mxGeometry x="2365" y="610" width="50" height="20" as="geometry"/>
                </mxCell>
                <mxCell id="30" value="" style="html=1;shadow=0;dashed=0;align=center;verticalAlign=middle;shape=mxgraph.arrows2.arrow;dy=0.6;dx=40;direction=south;notch=0;fontSize=16;" parent="1" vertex="1">
                    <mxGeometry x="2340" y="484.38" width="40" height="421.25" as="geometry"/>
                </mxCell>
                <mxCell id="32" value="" style="edgeStyle=orthogonalEdgeStyle;html=1;fontSize=16;" parent="1" source="31" target="3" edge="1">
                    <mxGeometry relative="1" as="geometry"/>
                </mxCell>
                <mxCell id="31" value="定义好xml文件，Java类之后" style="whiteSpace=wrap;html=1;fontSize=16;" parent="1" vertex="1">
                    <mxGeometry x="300" y="360" width="120" height="60" as="geometry"/>
                </mxCell>
                <mxCell id="33" value="后续调用才会触发" style="text;html=1;align=center;verticalAlign=middle;resizable=0;points=[];autosize=1;strokeColor=none;fillColor=none;fontSize=16;" parent="1" vertex="1">
                    <mxGeometry x="2290" y="440" width="140" height="20" as="geometry"/>
                </mxCell>
                <mxCell id="37" value="" style="edgeStyle=orthogonalEdgeStyle;html=1;fontSize=16;" parent="1" source="34" target="36" edge="1">
                    <mxGeometry relative="1" as="geometry"/>
                </mxCell>
                <mxCell id="41" value="" style="edgeStyle=orthogonalEdgeStyle;html=1;fontSize=16;" parent="1" source="34" target="40" edge="1">
                    <mxGeometry relative="1" as="geometry"/>
                </mxCell>
                <mxCell id="34" value="prepareBeanFactory" style="whiteSpace=wrap;html=1;fontSize=16;fontStyle=1;" parent="1" vertex="1">
                    <mxGeometry x="300" y="820" width="120" height="60" as="geometry"/>
                </mxCell>
                <mxCell id="39" value="" style="edgeStyle=orthogonalEdgeStyle;html=1;fontSize=16;" parent="1" source="36" target="38" edge="1">
                    <mxGeometry relative="1" as="geometry"/>
                </mxCell>
                <mxCell id="36" value="给容器工厂设置某些属性值" style="whiteSpace=wrap;html=1;fontSize=16;fontStyle=1;" parent="1" vertex="1">
                    <mxGeometry x="500" y="820" width="120" height="60" as="geometry"/>
                </mxCell>
                <mxCell id="38" value="。。。。" style="whiteSpace=wrap;html=1;fontSize=16;fontStyle=1;" parent="1" vertex="1">
                    <mxGeometry x="700" y="820" width="120" height="60" as="geometry"/>
                </mxCell>
                <mxCell id="43" value="" style="edgeStyle=orthogonalEdgeStyle;html=1;fontSize=16;" parent="1" source="40" target="42" edge="1">
                    <mxGeometry relative="1" as="geometry"/>
                </mxCell>
                <mxCell id="47" value="" style="edgeStyle=orthogonalEdgeStyle;html=1;fontSize=16;" parent="1" source="40" target="46" edge="1">
                    <mxGeometry relative="1" as="geometry"/>
                </mxCell>
                <mxCell id="40" value="invokeBeanFactoryPostProcessor" style="whiteSpace=wrap;html=1;fontSize=16;fontStyle=1;" parent="1" vertex="1">
                    <mxGeometry x="150" y="960" width="420" height="70" as="geometry"/>
                </mxCell>
                <mxCell id="45" value="" style="edgeStyle=orthogonalEdgeStyle;html=1;fontSize=16;" parent="1" source="42" target="44" edge="1">
                    <mxGeometry relative="1" as="geometry"/>
                </mxCell>
                <mxCell id="57" style="edgeStyle=orthogonalEdgeStyle;html=1;exitX=0.5;exitY=0;exitDx=0;exitDy=0;fontSize=16;entryX=0.5;entryY=1;entryDx=0;entryDy=0;exitPerimeter=0;" parent="1" source="42" target="23" edge="1">
                    <mxGeometry relative="1" as="geometry">
                        <mxPoint x="1800" y="810" as="targetPoint"/>
                        <Array as="points">
                            <mxPoint x="835" y="809"/>
                            <mxPoint x="2225" y="809"/>
                        </Array>
                    </mxGeometry>
                </mxCell>
                <mxCell id="58" value="修改或者添加" style="edgeLabel;html=1;align=center;verticalAlign=middle;resizable=0;points=[];fontSize=16;" parent="57" vertex="1" connectable="0">
                    <mxGeometry x="0.423" y="-5" relative="1" as="geometry">
                        <mxPoint x="-30" y="-4" as="offset"/>
                    </mxGeometry>
                </mxCell>
                <mxCell id="42" value="调用执行BFPP，可以修改或者引入其它beanDefinition，但是需要注意，BFPP针对的操作对象是BeanFactory" style="whiteSpace=wrap;html=1;fontSize=16;fontStyle=1;" parent="1" vertex="1">
                    <mxGeometry x="640" y="947.5" width="390" height="95" as="geometry"/>
                </mxCell>
                <mxCell id="44" value="ConfigurationClassPostProcessor&lt;br&gt;用来完成对相关注解的解析工作&lt;br&gt;@Bean&lt;br&gt;@ImportResource&lt;br&gt;@Component等" style="whiteSpace=wrap;html=1;fontSize=16;fontStyle=1;" parent="1" vertex="1">
                    <mxGeometry x="1070" y="905.63" width="520" height="177.5" as="geometry"/>
                </mxCell>
                <mxCell id="49" value="" style="edgeStyle=orthogonalEdgeStyle;html=1;fontSize=16;" parent="1" source="46" target="48" edge="1">
                    <mxGeometry relative="1" as="geometry"/>
                </mxCell>
                <mxCell id="52" value="" style="edgeStyle=orthogonalEdgeStyle;html=1;fontSize=16;" parent="1" source="46" target="51" edge="1">
                    <mxGeometry relative="1" as="geometry"/>
                </mxCell>
                <mxCell id="46" value="RegisterBeanPostProcessor" style="whiteSpace=wrap;html=1;fontSize=16;fontStyle=1;" parent="1" vertex="1">
                    <mxGeometry x="230" y="1110" width="260" height="85" as="geometry"/>
                </mxCell>
                <mxCell id="48" value="完成BeanPostProcessor，的注册工作，方便后续在实例化完成后调用before和after方法" style="whiteSpace=wrap;html=1;fontSize=16;fontStyle=1;" parent="1" vertex="1">
                    <mxGeometry x="650" y="1118.75" width="370" height="67.5" as="geometry"/>
                </mxCell>
                <mxCell id="50" value="实例化BPP" style="text;html=1;align=center;verticalAlign=middle;resizable=0;points=[];autosize=1;strokeColor=none;fillColor=none;fontSize=16;" parent="1" vertex="1">
                    <mxGeometry x="520" y="1130" width="100" height="20" as="geometry"/>
                </mxCell>
                <mxCell id="54" value="" style="edgeStyle=orthogonalEdgeStyle;html=1;fontSize=16;" parent="1" source="51" target="53" edge="1">
                    <mxGeometry relative="1" as="geometry"/>
                </mxCell>
                <mxCell id="51" value="&lt;pre style=&quot;background-color: #2b2b2b ; color: #a9b7c6 ; font-family: &amp;#34;jetbrains mono extrabold&amp;#34; , monospace ; font-size: 12.0pt&quot;&gt;finishBeanFactoryInitialization&lt;/pre&gt;" style="whiteSpace=wrap;html=1;fontSize=16;fontStyle=1;" parent="1" vertex="1">
                    <mxGeometry x="160" y="1260" width="400" height="112.5" as="geometry"/>
                </mxCell>
                <mxCell id="56" value="" style="edgeStyle=orthogonalEdgeStyle;html=1;fontSize=16;" parent="1" source="53" target="55" edge="1">
                    <mxGeometry relative="1" as="geometry"/>
                </mxCell>
                <mxCell id="66" value="先从容器中找，&lt;br&gt;找不到再创建" style="edgeLabel;html=1;align=center;verticalAlign=middle;resizable=0;points=[];fontSize=16;" parent="56" vertex="1" connectable="0">
                    <mxGeometry x="-0.1338" relative="1" as="geometry">
                        <mxPoint as="offset"/>
                    </mxGeometry>
                </mxCell>
                <mxCell id="53" value="完成对对象的创建工作" style="whiteSpace=wrap;html=1;fontSize=16;fontStyle=1;" parent="1" vertex="1">
                    <mxGeometry x="710" y="1286.24" width="120" height="60" as="geometry"/>
                </mxCell>
                <mxCell id="65" style="edgeStyle=orthogonalEdgeStyle;html=1;exitX=1;exitY=0.5;exitDx=0;exitDy=0;entryX=0.5;entryY=1;entryDx=0;entryDy=0;fontSize=16;" parent="1" source="55" target="59" edge="1">
                    <mxGeometry relative="1" as="geometry"/>
                </mxCell>
                <mxCell id="55" value="将需要创建的bean对象放到数组中，挨个进行创建" style="whiteSpace=wrap;html=1;fontSize=16;fontStyle=1;" parent="1" vertex="1">
                    <mxGeometry x="1150" y="1279.3700000000001" width="210" height="73.75" as="geometry"/>
                </mxCell>
                <mxCell id="61" style="edgeStyle=orthogonalEdgeStyle;html=1;exitX=1;exitY=0.5;exitDx=0;exitDy=0;entryX=0.5;entryY=1;entryDx=0;entryDy=0;fontSize=16;" parent="1" source="59" target="26" edge="1">
                    <mxGeometry relative="1" as="geometry">
                        <Array as="points">
                            <mxPoint x="2638" y="1000"/>
                        </Array>
                    </mxGeometry>
                </mxCell>
                <mxCell id="62" value="转换成" style="edgeLabel;html=1;align=center;verticalAlign=middle;resizable=0;points=[];fontSize=16;" parent="61" vertex="1" connectable="0">
                    <mxGeometry x="-0.4462" y="-2" relative="1" as="geometry">
                        <mxPoint as="offset"/>
                    </mxGeometry>
                </mxCell>
                <mxCell id="59" value="取出BD" style="whiteSpace=wrap;html=1;fontSize=16;fontStyle=1;" parent="1" vertex="1">
                    <mxGeometry x="2165" y="970" width="120" height="60" as="geometry"/>
                </mxCell>
                <mxCell id="68" value="" style="edgeStyle=orthogonalEdgeStyle;html=1;fontSize=16;" parent="1" source="63" target="67" edge="1">
                    <mxGeometry relative="1" as="geometry"/>
                </mxCell>
                <mxCell id="63" value="进行具体的实例化操作" style="whiteSpace=wrap;html=1;fontSize=16;fontStyle=1;" parent="1" vertex="1">
                    <mxGeometry x="2390" y="1150" width="120" height="60" as="geometry"/>
                </mxCell>
                <mxCell id="70" value="" style="edgeStyle=orthogonalEdgeStyle;html=1;fontSize=16;" parent="1" source="67" target="69" edge="1">
                    <mxGeometry relative="1" as="geometry"/>
                </mxCell>
                <mxCell id="67" value="createBean" style="whiteSpace=wrap;html=1;fontSize=16;fontStyle=1;" parent="1" vertex="1">
                    <mxGeometry x="2390" y="1250" width="120" height="60" as="geometry"/>
                </mxCell>
                <mxCell id="72" value="" style="edgeStyle=orthogonalEdgeStyle;html=1;fontSize=16;" parent="1" source="69" target="71" edge="1">
                    <mxGeometry relative="1" as="geometry"/>
                </mxCell>
                <mxCell id="69" value="doCreateBean" style="whiteSpace=wrap;html=1;fontSize=16;fontStyle=1;" parent="1" vertex="1">
                    <mxGeometry x="2390" y="1350" width="120" height="60" as="geometry"/>
                </mxCell>
                <mxCell id="83" value="" style="edgeStyle=orthogonalEdgeStyle;html=1;fontSize=16;" parent="1" source="71" target="82" edge="1">
                    <mxGeometry relative="1" as="geometry"/>
                </mxCell>
                <mxCell id="168" style="edgeStyle=orthogonalEdgeStyle;html=1;exitX=1;exitY=0.5;exitDx=0;exitDy=0;entryX=0;entryY=0.5;entryDx=0;entryDy=0;fontSize=16;fontColor=#FFFFFF;strokeColor=#FFFFFF;" parent="1" source="71" target="78" edge="1">
                    <mxGeometry relative="1" as="geometry"/>
                </mxCell>
                <mxCell id="169" style="edgeStyle=orthogonalEdgeStyle;html=1;exitX=1;exitY=0.5;exitDx=0;exitDy=0;fontSize=16;fontColor=#FFFFFF;strokeColor=#FFFFFF;" parent="1" source="71" target="76" edge="1">
                    <mxGeometry relative="1" as="geometry"/>
                </mxCell>
                <mxCell id="170" style="edgeStyle=orthogonalEdgeStyle;html=1;exitX=1;exitY=0.5;exitDx=0;exitDy=0;entryX=0;entryY=0.5;entryDx=0;entryDy=0;fontSize=16;fontColor=#FFFFFF;strokeColor=#FFFFFF;" parent="1" source="71" target="73" edge="1">
                    <mxGeometry relative="1" as="geometry"/>
                </mxCell>
                <mxCell id="171" style="edgeStyle=orthogonalEdgeStyle;html=1;exitX=1;exitY=0.5;exitDx=0;exitDy=0;entryX=0;entryY=0.5;entryDx=0;entryDy=0;fontSize=16;fontColor=#FFFFFF;strokeColor=#FFFFFF;" parent="1" source="71" target="80" edge="1">
                    <mxGeometry relative="1" as="geometry"/>
                </mxCell>
                <mxCell id="71" value="createBeanInstance" style="whiteSpace=wrap;html=1;fontSize=16;fontStyle=1;" parent="1" vertex="1">
                    <mxGeometry x="2355" y="1460" width="190" height="70" as="geometry"/>
                </mxCell>
                <mxCell id="73" value="Supplier" style="whiteSpace=wrap;html=1;fontSize=16;fontStyle=1;" parent="1" vertex="1">
                    <mxGeometry x="2639" y="1366" width="120" height="60" as="geometry"/>
                </mxCell>
                <mxCell id="76" value="FactoryMethod" style="whiteSpace=wrap;html=1;fontSize=16;" parent="1" vertex="1">
                    <mxGeometry x="2644" y="1437" width="120" height="60" as="geometry"/>
                </mxCell>
                <mxCell id="78" value="反射" style="whiteSpace=wrap;html=1;fontSize=16;" parent="1" vertex="1">
                    <mxGeometry x="2644" y="1512" width="120" height="60" as="geometry"/>
                </mxCell>
                <mxCell id="80" value="BPP动态代理（前面步骤）" style="whiteSpace=wrap;html=1;fontSize=16;" parent="1" vertex="1">
                    <mxGeometry x="2644" y="1584" width="120" height="60" as="geometry"/>
                </mxCell>
                <mxCell id="86" value="" style="edgeStyle=orthogonalEdgeStyle;html=1;fontSize=16;" parent="1" source="82" target="85" edge="1">
                    <mxGeometry relative="1" as="geometry"/>
                </mxCell>
                <mxCell id="105" style="edgeStyle=orthogonalEdgeStyle;html=1;exitX=0.5;exitY=1;exitDx=0;exitDy=0;entryX=0.5;entryY=0;entryDx=0;entryDy=0;fontSize=16;" parent="1" source="82" target="91" edge="1">
                    <mxGeometry relative="1" as="geometry"/>
                </mxCell>
                <mxCell id="82" value="applyMergedBeanDefinitionPostProcessor" style="whiteSpace=wrap;html=1;fontSize=16;fontStyle=1;" parent="1" vertex="1">
                    <mxGeometry x="2287" y="1668" width="326" height="43" as="geometry"/>
                </mxCell>
                <mxCell id="88" style="edgeStyle=orthogonalEdgeStyle;html=1;exitX=1;exitY=0.5;exitDx=0;exitDy=0;fontSize=16;" parent="1" source="85" target="87" edge="1">
                    <mxGeometry relative="1" as="geometry"/>
                </mxCell>
                <mxCell id="85" value="注册生命周期接口" style="whiteSpace=wrap;html=1;fontSize=16;fontStyle=1;" parent="1" vertex="1">
                    <mxGeometry x="2661" y="1659.5" width="120" height="60" as="geometry"/>
                </mxCell>
                <mxCell id="87" value="@PostConstruct&lt;br&gt;@PreDestory&lt;br&gt;@Resource&lt;br&gt;@Autowired&lt;br&gt;@Value" style="whiteSpace=wrap;html=1;fontSize=16;" parent="1" vertex="1">
                    <mxGeometry x="2830" y="1609.5" width="220" height="160" as="geometry"/>
                </mxCell>
                <mxCell id="106" style="edgeStyle=orthogonalEdgeStyle;html=1;exitX=0.5;exitY=1;exitDx=0;exitDy=0;fontSize=16;entryX=0.5;entryY=0;entryDx=0;entryDy=0;" parent="1" source="91" target="107" edge="1">
                    <mxGeometry relative="1" as="geometry">
                        <mxPoint x="2450" y="2090" as="targetPoint"/>
                    </mxGeometry>
                </mxCell>
                <mxCell id="166" style="edgeStyle=orthogonalEdgeStyle;html=1;exitX=1;exitY=0.5;exitDx=0;exitDy=0;entryX=0;entryY=0.5;entryDx=0;entryDy=0;fontSize=16;fontColor=#FFFFFF;strokeColor=#FFFFFF;" parent="1" source="91" target="92" edge="1">
                    <mxGeometry relative="1" as="geometry"/>
                </mxCell>
                <mxCell id="167" style="edgeStyle=orthogonalEdgeStyle;html=1;exitX=1;exitY=0.5;exitDx=0;exitDy=0;entryX=0;entryY=0.5;entryDx=0;entryDy=0;fontSize=16;fontColor=#FFFFFF;strokeColor=#FFFFFF;" parent="1" source="91" target="94" edge="1">
                    <mxGeometry relative="1" as="geometry"/>
                </mxCell>
                <mxCell id="91" value="populateBean" style="whiteSpace=wrap;html=1;fontSize=16;" parent="1" vertex="1">
                    <mxGeometry x="2390" y="1825" width="120" height="60" as="geometry"/>
                </mxCell>
                <mxCell id="92" value="填充属性" style="whiteSpace=wrap;html=1;fontSize=16;" parent="1" vertex="1">
                    <mxGeometry x="2599" y="1775" width="120" height="60" as="geometry"/>
                </mxCell>
                <mxCell id="98" value="" style="edgeStyle=orthogonalEdgeStyle;html=1;fontSize=16;" parent="1" source="94" target="97" edge="1">
                    <mxGeometry relative="1" as="geometry"/>
                </mxCell>
                <mxCell id="94" value="创建需要以来的bean对象" style="whiteSpace=wrap;html=1;fontSize=16;" parent="1" vertex="1">
                    <mxGeometry x="2599" y="1871" width="120" height="60" as="geometry"/>
                </mxCell>
                <mxCell id="100" value="" style="edgeStyle=orthogonalEdgeStyle;html=1;fontSize=16;" parent="1" source="97" target="99" edge="1">
                    <mxGeometry relative="1" as="geometry"/>
                </mxCell>
                <mxCell id="97" value="getBean" style="whiteSpace=wrap;html=1;fontSize=16;" parent="1" vertex="1">
                    <mxGeometry x="2799" y="1871" width="120" height="60" as="geometry"/>
                </mxCell>
                <mxCell id="104" style="edgeStyle=orthogonalEdgeStyle;html=1;exitX=0.5;exitY=1;exitDx=0;exitDy=0;fontSize=16;" parent="1" source="99" target="102" edge="1">
                    <mxGeometry relative="1" as="geometry">
                        <Array as="points">
                            <mxPoint x="3030" y="1983"/>
                            <mxPoint x="1070" y="1983"/>
                        </Array>
                    </mxGeometry>
                </mxCell>
                <mxCell id="99" value="doGetBean" style="whiteSpace=wrap;html=1;fontSize=16;" parent="1" vertex="1">
                    <mxGeometry x="2970" y="1871" width="120" height="60" as="geometry"/>
                </mxCell>
                <mxCell id="103" value="" style="edgeStyle=orthogonalEdgeStyle;html=1;fontSize=16;" parent="1" source="101" target="102" edge="1">
                    <mxGeometry relative="1" as="geometry"/>
                </mxCell>
                <mxCell id="101" value="createBean" style="whiteSpace=wrap;html=1;fontSize=16;" parent="1" vertex="1">
                    <mxGeometry x="850" y="1372.5" width="120" height="60" as="geometry"/>
                </mxCell>
                <mxCell id="102" value="doCreateBean" style="whiteSpace=wrap;html=1;fontSize=16;" parent="1" vertex="1">
                    <mxGeometry x="1010" y="1372.5" width="120" height="60" as="geometry"/>
                </mxCell>
                <mxCell id="109" value="" style="edgeStyle=orthogonalEdgeStyle;html=1;fontSize=16;" parent="1" source="107" target="108" edge="1">
                    <mxGeometry relative="1" as="geometry"/>
                </mxCell>
                <mxCell id="147" value="" style="edgeStyle=orthogonalEdgeStyle;html=1;fontSize=16;" parent="1" source="107" target="146" edge="1">
                    <mxGeometry relative="1" as="geometry"/>
                </mxCell>
                <mxCell id="107" value="initializeBean" style="whiteSpace=wrap;html=1;fontSize=16;" parent="1" vertex="1">
                    <mxGeometry x="2390" y="2080" width="120" height="60" as="geometry"/>
                </mxCell>
                <mxCell id="111" value="" style="edgeStyle=orthogonalEdgeStyle;html=1;fontSize=16;" parent="1" source="108" target="110" edge="1">
                    <mxGeometry relative="1" as="geometry"/>
                </mxCell>
                <mxCell id="122" style="edgeStyle=orthogonalEdgeStyle;html=1;exitX=1;exitY=0.5;exitDx=0;exitDy=0;entryX=0;entryY=0.5;entryDx=0;entryDy=0;fontSize=16;" parent="1" source="108" target="121" edge="1">
                    <mxGeometry relative="1" as="geometry"/>
                </mxCell>
                <mxCell id="139" style="edgeStyle=orthogonalEdgeStyle;html=1;exitX=0.5;exitY=1;exitDx=0;exitDy=0;entryX=0;entryY=0.5;entryDx=0;entryDy=0;fontSize=16;" parent="1" source="108" target="131" edge="1">
                    <mxGeometry relative="1" as="geometry"/>
                </mxCell>
                <mxCell id="143" style="edgeStyle=orthogonalEdgeStyle;html=1;exitX=0.5;exitY=1;exitDx=0;exitDy=0;entryX=0;entryY=0.5;entryDx=0;entryDy=0;fontSize=16;" parent="1" source="108" target="141" edge="1">
                    <mxGeometry relative="1" as="geometry"/>
                </mxCell>
                <mxCell id="108" value="进行初始化工作" style="whiteSpace=wrap;html=1;fontSize=16;" parent="1" vertex="1">
                    <mxGeometry x="2590" y="2080" width="120" height="60" as="geometry"/>
                </mxCell>
                <mxCell id="114" value="" style="edgeStyle=orthogonalEdgeStyle;html=1;fontSize=16;" parent="1" source="110" target="113" edge="1">
                    <mxGeometry relative="1" as="geometry"/>
                </mxCell>
                <mxCell id="115" style="edgeStyle=orthogonalEdgeStyle;html=1;exitX=1;exitY=0.5;exitDx=0;exitDy=0;fontSize=16;" parent="1" source="110" target="116" edge="1">
                    <mxGeometry relative="1" as="geometry">
                        <mxPoint x="3010" y="2140" as="targetPoint"/>
                    </mxGeometry>
                </mxCell>
                <mxCell id="119" style="edgeStyle=orthogonalEdgeStyle;html=1;exitX=1;exitY=0.5;exitDx=0;exitDy=0;entryX=0;entryY=0.5;entryDx=0;entryDy=0;fontSize=16;" parent="1" source="110" target="118" edge="1">
                    <mxGeometry relative="1" as="geometry"/>
                </mxCell>
                <mxCell id="110" value="invokeAwareMethod" style="whiteSpace=wrap;html=1;fontSize=16;" parent="1" vertex="1">
                    <mxGeometry x="2790" y="2080" width="150" height="60" as="geometry"/>
                </mxCell>
                <mxCell id="113" value="BeanNameAware" style="whiteSpace=wrap;html=1;fontSize=16;" parent="1" vertex="1">
                    <mxGeometry x="3047" y="2028" width="136" height="59" as="geometry"/>
                </mxCell>
                <mxCell id="116" value="BeanClassLoaderAare" style="whiteSpace=wrap;html=1;fontSize=16;" parent="1" vertex="1">
                    <mxGeometry x="3047" y="2104" width="172" height="69" as="geometry"/>
                </mxCell>
                <mxCell id="118" value="BeanFactoryAware" style="whiteSpace=wrap;html=1;fontSize=16;" parent="1" vertex="1">
                    <mxGeometry x="3047" y="2182" width="210" height="70" as="geometry"/>
                </mxCell>
                <mxCell id="124" style="edgeStyle=orthogonalEdgeStyle;html=1;exitX=0.5;exitY=1;exitDx=0;exitDy=0;entryX=0;entryY=0.5;entryDx=0;entryDy=0;fontSize=16;" parent="1" source="121" target="123" edge="1">
                    <mxGeometry relative="1" as="geometry"/>
                </mxCell>
                <mxCell id="130" style="edgeStyle=orthogonalEdgeStyle;html=1;exitX=0.5;exitY=1;exitDx=0;exitDy=0;entryX=0;entryY=0.5;entryDx=0;entryDy=0;fontSize=16;" parent="1" source="121" target="128" edge="1">
                    <mxGeometry relative="1" as="geometry"/>
                </mxCell>
                <mxCell id="121" value="执行BFPP的before方法" style="whiteSpace=wrap;html=1;fontSize=16;" parent="1" vertex="1">
                    <mxGeometry x="2790" y="2205" width="120" height="60" as="geometry"/>
                </mxCell>
                <mxCell id="126" value="" style="edgeStyle=orthogonalEdgeStyle;html=1;fontSize=16;" parent="1" source="123" target="125" edge="1">
                    <mxGeometry relative="1" as="geometry"/>
                </mxCell>
                <mxCell id="123" value="&lt;span&gt;ApplicationAwarePostProcessor&lt;/span&gt;" style="whiteSpace=wrap;html=1;fontSize=16;" parent="1" vertex="1">
                    <mxGeometry x="2970" y="2300" width="303" height="50" as="geometry"/>
                </mxCell>
                <mxCell id="125" value="继续实现某些Aware接口的set方法" style="whiteSpace=wrap;html=1;fontSize=16;" parent="1" vertex="1">
                    <mxGeometry x="3314" y="2295.5" width="312" height="59" as="geometry"/>
                </mxCell>
                <mxCell id="128" value="CommonAnnotationBeanPostProcessor" style="whiteSpace=wrap;html=1;fontSize=16;" parent="1" vertex="1">
                    <mxGeometry x="2970" y="2373" width="306" height="53" as="geometry"/>
                </mxCell>
                <mxCell id="134" style="edgeStyle=orthogonalEdgeStyle;html=1;exitX=1;exitY=0.5;exitDx=0;exitDy=0;entryX=0;entryY=0.5;entryDx=0;entryDy=0;fontSize=16;fillColor=#f0a30a;strokeColor=#BD7000;" parent="1" source="131" target="132" edge="1">
                    <mxGeometry relative="1" as="geometry"/>
                </mxCell>
                <mxCell id="138" style="edgeStyle=orthogonalEdgeStyle;html=1;exitX=1;exitY=0.5;exitDx=0;exitDy=0;entryX=0;entryY=0.5;entryDx=0;entryDy=0;fontSize=16;fillColor=#f0a30a;strokeColor=#BD7000;" parent="1" source="131" target="137" edge="1">
                    <mxGeometry relative="1" as="geometry"/>
                </mxCell>
                <mxCell id="131" value="invokeInitMethod" style="whiteSpace=wrap;html=1;fontSize=16;fillColor=#f0a30a;strokeColor=#BD7000;fontColor=#000000;" parent="1" vertex="1">
                    <mxGeometry x="2790" y="2497" width="170" height="60" as="geometry"/>
                </mxCell>
                <mxCell id="164" style="edgeStyle=orthogonalEdgeStyle;html=1;exitX=1;exitY=0.5;exitDx=0;exitDy=0;fontSize=16;fontColor=#FFFFFF;fillColor=#f0a30a;strokeColor=#BD7000;" parent="1" source="132" target="163" edge="1">
                    <mxGeometry relative="1" as="geometry"/>
                </mxCell>
                <mxCell id="132" value="是否实现initializingBean" style="whiteSpace=wrap;html=1;fontSize=16;fillColor=#f0a30a;strokeColor=#BD7000;fontColor=#000000;" parent="1" vertex="1">
                    <mxGeometry x="3020" y="2447" width="260" height="60" as="geometry"/>
                </mxCell>
                <mxCell id="135" value="最后一次修改我们的属性值" style="whiteSpace=wrap;html=1;fontSize=16;fillColor=#f0a30a;strokeColor=#BD7000;fontColor=#000000;" parent="1" vertex="1">
                    <mxGeometry x="3520" y="2447" width="120" height="60" as="geometry"/>
                </mxCell>
                <mxCell id="137" value="执行用户自定义的init-method" style="whiteSpace=wrap;html=1;fontSize=16;fillColor=#f0a30a;strokeColor=#BD7000;fontColor=#000000;" parent="1" vertex="1">
                    <mxGeometry x="3020" y="2537" width="250" height="60" as="geometry"/>
                </mxCell>
                <mxCell id="145" value="" style="edgeStyle=orthogonalEdgeStyle;html=1;fontSize=16;fillColor=#f0a30a;strokeColor=#BD7000;" parent="1" source="141" target="144" edge="1">
                    <mxGeometry relative="1" as="geometry"/>
                </mxCell>
                <mxCell id="141" value="执行BPP的After" style="whiteSpace=wrap;html=1;fontSize=16;fillColor=#f0a30a;strokeColor=#BD7000;fontColor=#000000;" parent="1" vertex="1">
                    <mxGeometry x="2790" y="2629" width="120" height="60" as="geometry"/>
                </mxCell>
                <mxCell id="144" value="AOP" style="whiteSpace=wrap;html=1;fontSize=16;fillColor=#f0a30a;strokeColor=#BD7000;fontColor=#000000;" parent="1" vertex="1">
                    <mxGeometry x="2990" y="2629" width="120" height="60" as="geometry"/>
                </mxCell>
                <mxCell id="149" value="" style="edgeStyle=orthogonalEdgeStyle;html=1;fontSize=16;" parent="1" source="146" target="148" edge="1">
                    <mxGeometry relative="1" as="geometry"/>
                </mxCell>
                <mxCell id="146" value="获取对象来进行相关的操作" style="whiteSpace=wrap;html=1;fontSize=16;" parent="1" vertex="1">
                    <mxGeometry x="2390" y="2220" width="120" height="60" as="geometry"/>
                </mxCell>
                <mxCell id="155" style="edgeStyle=orthogonalEdgeStyle;html=1;exitX=0;exitY=0.5;exitDx=0;exitDy=0;entryX=1;entryY=0.5;entryDx=0;entryDy=0;fontSize=16;fillColor=#6d8764;strokeColor=#FFFFFF;" parent="1" source="148" target="150" edge="1">
                    <mxGeometry relative="1" as="geometry"/>
                </mxCell>
                <mxCell id="157" value="" style="edgeStyle=orthogonalEdgeStyle;html=1;fontSize=16;fillColor=#6d8764;strokeColor=#FFFFFF;" parent="1" source="148" target="156" edge="1">
                    <mxGeometry relative="1" as="geometry"/>
                </mxCell>
                <mxCell id="162" style="edgeStyle=orthogonalEdgeStyle;html=1;exitX=0;exitY=0.5;exitDx=0;exitDy=0;entryX=1;entryY=0.5;entryDx=0;entryDy=0;fontSize=16;fillColor=#6d8764;strokeColor=#FFFFFF;" parent="1" source="148" target="160" edge="1">
                    <mxGeometry relative="1" as="geometry"/>
                </mxCell>
                <mxCell id="148" value="销毁流程" style="whiteSpace=wrap;html=1;fontSize=16;" parent="1" vertex="1">
                    <mxGeometry x="2390" y="2360" width="120" height="60" as="geometry"/>
                </mxCell>
                <mxCell id="153" value="" style="edgeStyle=orthogonalEdgeStyle;html=1;fontSize=16;fillColor=#6d8764;strokeColor=#FFFFFF;fontColor=#000000;labelBackgroundColor=none;fontStyle=1" parent="1" source="150" target="152" edge="1">
                    <mxGeometry relative="1" as="geometry"/>
                </mxCell>
                <mxCell id="150" value="&lt;pre style=&quot;font-family: &amp;quot;jetbrains mono extrabold&amp;quot;, monospace; font-size: 12pt;&quot;&gt;&lt;span style=&quot;&quot;&gt;DestructionAwareBeanPostProcessors&lt;/span&gt;&lt;/pre&gt;" style="whiteSpace=wrap;html=1;fontSize=16;fillColor=#6d8764;fontColor=#000000;strokeColor=#FFFFFF;fontStyle=1;labelBackgroundColor=none;" parent="1" vertex="1">
                    <mxGeometry x="1975" y="2260" width="310" height="60" as="geometry"/>
                </mxCell>
                <mxCell id="152" value="&lt;pre style=&quot;font-family: &amp;quot;jetbrains mono extrabold&amp;quot;, monospace; font-size: 12pt;&quot;&gt;&lt;span style=&quot;&quot;&gt;postProcessBeforeDestruction&lt;/span&gt;&lt;/pre&gt;" style="whiteSpace=wrap;html=1;fontSize=16;fillColor=#6d8764;fontColor=#000000;strokeColor=#FFFFFF;fontStyle=1;labelBackgroundColor=none;" parent="1" vertex="1">
                    <mxGeometry x="1630" y="2255" width="280" height="70" as="geometry"/>
                </mxCell>
                <mxCell id="159" value="" style="edgeStyle=orthogonalEdgeStyle;html=1;fontSize=16;fillColor=#6d8764;strokeColor=#FFFFFF;fontColor=#000000;labelBackgroundColor=none;fontStyle=1" parent="1" source="156" target="158" edge="1">
                    <mxGeometry relative="1" as="geometry"/>
                </mxCell>
                <mxCell id="156" value="&lt;pre style=&quot;font-family: &amp;quot;jetbrains mono extrabold&amp;quot;, monospace; font-size: 12pt;&quot;&gt;&lt;span style=&quot;&quot;&gt;&lt;font&gt;DisposableBean&lt;/font&gt;&lt;/span&gt;&lt;/pre&gt;" style="whiteSpace=wrap;html=1;fontSize=16;fillColor=#6d8764;fontColor=#000000;strokeColor=#FFFFFF;fontStyle=1;labelBackgroundColor=none;" parent="1" vertex="1">
                    <mxGeometry x="2150" y="2360" width="120" height="60" as="geometry"/>
                </mxCell>
                <mxCell id="158" value="&lt;pre style=&quot;font-family: &amp;quot;jetbrains mono extrabold&amp;quot;, monospace; font-size: 12pt;&quot;&gt;&lt;span style=&quot;&quot;&gt;destroy&lt;/span&gt;&lt;/pre&gt;" style="whiteSpace=wrap;html=1;fontSize=16;fillColor=#6d8764;fontColor=#000000;strokeColor=#FFFFFF;fontStyle=1;labelBackgroundColor=none;" parent="1" vertex="1">
                    <mxGeometry x="1950" y="2360" width="120" height="60" as="geometry"/>
                </mxCell>
                <mxCell id="160" value="自定义的destoryMethod" style="whiteSpace=wrap;html=1;fontSize=16;fillColor=#6d8764;fontColor=#000000;strokeColor=#FFFFFF;labelBackgroundColor=none;fontStyle=1" parent="1" vertex="1">
                    <mxGeometry x="2165" y="2460" width="120" height="60" as="geometry"/>
                </mxCell>
                <mxCell id="165" style="edgeStyle=orthogonalEdgeStyle;html=1;exitX=1;exitY=0.5;exitDx=0;exitDy=0;fontSize=16;fontColor=#FFFFFF;fillColor=#f0a30a;strokeColor=#BD7000;" parent="1" source="163" target="135" edge="1">
                    <mxGeometry relative="1" as="geometry"/>
                </mxCell>
                <mxCell id="163" value="afterPropertiesSet" style="whiteSpace=wrap;html=1;fontSize=16;fillColor=#f0a30a;strokeColor=#BD7000;fontColor=#000000;" parent="1" vertex="1">
                    <mxGeometry x="3310" y="2442" width="170" height="70" as="geometry"/>
                </mxCell>
            </root>
        </mxGraphModel>
    </diagram>
</mxfile>